<svg width="120" height="120" viewBox="0 0 120 120" fill="none" xmlns="http://www.w3.org/2000/svg">
<rect opacity="0.15" width="120" height="120" rx="24.8889" fill="white"/>
<g filter="url(#filter0_i_2389_147)">
<path fill-rule="evenodd" clip-rule="evenodd" d="M77.9536 49.4464C77.9536 49.4464 71.9953 68.1692 71.5367 69.7402C71.3735 68.1692 67.0129 34.5368 67.0129 34.5368C56.8655 34.5368 51.4381 41.7629 48.5767 49.4376C48.5767 49.4376 41.3322 68.2169 40.7435 69.7892C40.71 68.315 39.6301 49.632 39.6301 49.632C39.0171 40.2432 30.4616 34.5616 23.5314 34.5616L31.8674 85.5137C42.5135 85.4796 48.2125 78.2673 51.2198 70.6045C51.2198 70.6045 57.5939 54.0383 57.8568 53.2853C57.922 54.0042 62.4392 85.5154 62.4392 85.5154C73.0942 85.5154 78.8425 78.7613 81.9372 71.3757L96.8889 34.5616C86.3565 34.5616 80.8141 41.7673 77.9536 49.4464Z" fill="url(#paint0_linear_2389_147)"/>
</g>
<defs>
<filter id="filter0_i_2389_147" x="23.5314" y="32.54" width="73.3575" height="52.9755" filterUnits="userSpaceOnUse" color-interpolation-filters="sRGB">
<feFlood flood-opacity="0" result="BackgroundImageFix"/>
<feBlend mode="normal" in="SourceGraphic" in2="BackgroundImageFix" result="shape"/>
<feColorMatrix in="SourceAlpha" type="matrix" values="0 0 0 0 0 0 0 0 0 0 0 0 0 0 0 0 0 0 127 0" result="hardAlpha"/>
<feOffset dy="-1.99686"/>
<feGaussianBlur stdDeviation="0.998429"/>
<feComposite in2="hardAlpha" operator="arithmetic" k2="-1" k3="1"/>
<feColorMatrix type="matrix" values="0 0 0 0 0 0 0 0 0 0 0 0 0 0 0 0 0 0 0.25 0"/>
<feBlend mode="normal" in2="shape" result="effect1_innerShadow_2389_147"/>
</filter>
<linearGradient id="paint0_linear_2389_147" x1="60.2102" y1="34.5368" x2="60.2102" y2="85.5154" gradientUnits="userSpaceOnUse">
<stop stop-color="white" stop-opacity="0.8"/>
<stop offset="1" stop-color="white" stop-opacity="0.6"/>
</linearGradient>
</defs>
</svg>
